<?xml version="1.0" encoding="UTF-8" standalone="no"?>
<svg
   version="1.1"
   width="798.36676mm"
   height="598.77728mm"
   viewBox="0 0 3017.4492 2263.0952"
   id="svg6"
   sodipodi:docname="bg-dark.svg"
   inkscape:version="1.2.2 (b0a8486541, 2022-12-01)"
   xmlns:inkscape="http://www.inkscape.org/namespaces/inkscape"
   xmlns:sodipodi="http://sodipodi.sourceforge.net/DTD/sodipodi-0.dtd"
   xmlns="http://www.w3.org/2000/svg"
   xmlns:svg="http://www.w3.org/2000/svg">
  <defs
     id="defs10">
    <filter
       inkscape:collect="always"
       style="color-interpolation-filters:sRGB"
       id="filter25364"
       x="-0.38837776"
       y="-0.66912779"
       width="1.7767555"
       height="2.3382556">
      <feGaussianBlur
         inkscape:collect="always"
         stdDeviation="109.76198"
         id="feGaussianBlur25366" />
    </filter>
    <filter
       inkscape:collect="always"
       style="color-interpolation-filters:sRGB"
       id="filter25368"
       x="-0.38837776"
       y="-0.66912781"
       width="1.7767555"
       height="2.3382556">
      <feGaussianBlur
         inkscape:collect="always"
         stdDeviation="109.76198"
         id="feGaussianBlur25370" />
    </filter>
    <filter
       inkscape:collect="always"
       style="color-interpolation-filters:sRGB"
       id="filter25372"
       x="-0.38837776"
       y="-0.66912775"
       width="1.7767555"
       height="2.3382555">
      <feGaussianBlur
         inkscape:collect="always"
         stdDeviation="109.76198"
         id="feGaussianBlur25374" />
    </filter>
    <filter
       inkscape:collect="always"
       style="color-interpolation-filters:sRGB"
       id="filter25376"
       x="-0.38837774"
       y="-0.66912791"
       width="1.7767555"
       height="2.3382558">
      <feGaussianBlur
         inkscape:collect="always"
         stdDeviation="109.76198"
         id="feGaussianBlur25378" />
    </filter>
    <filter
       inkscape:collect="always"
       style="color-interpolation-filters:sRGB"
       id="filter25380"
       x="-0.2924172"
       y="-0.50379935"
       width="1.5848344"
       height="2.0075987">
      <feGaussianBlur
         inkscape:collect="always"
         stdDeviation="82.64194"
         id="feGaussianBlur25382" />
    </filter>
  </defs>
  <sodipodi:namedview
     id="namedview8"
     pagecolor="#ffffff"
     bordercolor="#666666"
     borderopacity="1.0"
     inkscape:showpageshadow="2"
     inkscape:pageopacity="0.0"
     inkscape:pagecheckerboard="0"
     inkscape:deskcolor="#d1d1d1"
     showgrid="false"
     inkscape:zoom="0.236"
     inkscape:cx="906.77966"
     inkscape:cy="726.69492"
     inkscape:window-width="1920"
     inkscape:window-height="1012"
     inkscape:window-x="0"
     inkscape:window-y="0"
     inkscape:window-maximized="1"
     inkscape:current-layer="svg6"
     inkscape:document-units="mm" />
  <rect
     style="opacity:1;fill:#2d3748;fill-opacity:1;fill-rule:evenodd;stroke:none;stroke-width:40.7338;stroke-linecap:square;stroke-linejoin:round"
     id="rect6887"
     width="3017.4492"
     height="2263.0952"
     x="0"
     y="0" />
  <path
     d="m 790.33066,546.49444 c 0,-75.38689 28.58874,-152.41037 94.66584,-152.41037 67.7656,0 101.07083,76.96816 98.72814,153.87078 -2.17128,71.27572 -34.86483,142.02693 -98.72814,142.02693 -63.53696,0 -94.66584,-71.77979 -94.66584,-143.48734 l -40.30236,-7.10633 c 0,77.05188 -18.67851,158.23424 -81.27105,150.59367 -33.7695,-4.12218 -53.69906,-38.17121 -53.69906,-73.9683 0,-49.89998 42.58901,-88.82835 93.33863,-88.82835 h 370.69588 c 51.6398,0 94.9252,39.80475 93.3386,90.2198 -1.5393,48.91332 -45.7237,85.36616 -93.3386,76.15006 v 40.92433 c 79.8426,15.45392 153.7919,-46.16263 153.7919,-127.73381 0,-71.42155 -75.2639,-113.66405 -153.7919,-113.66405 H 708.39682 c -81.50263,0 -153.79191,55.84845 -153.79191,133.59142 0,69.96654 62.80674,123.20664 131.64884,111.37964 43.80477,-7.52562 77.70685,-41.42778 90.55872,-84.23619 25.26486,48.46963 71.54246,84.23619 125.68055,84.23619 94.10618,0 151.02728,-98.64814 148.40238,-201.94154 -2.4872,-97.87799 -58.31512,-190.09763 -148.40238,-190.09763 -92.68933,0 -152.46472,93.26284 -152.46472,193.37476 z"
     style="mix-blend-mode:normal;fill:#d69e2e;fill-opacity:1;stroke:none;stroke-width:0.741385;filter:url(#filter25364)"
     id="path5646" />
  <path
     d="m 1864.8031,514.44862 c 0,-75.38689 28.5887,-152.41036 94.6658,-152.41036 67.7656,0 101.0709,76.96815 98.7282,153.87077 -2.1714,71.27572 -34.8649,142.02693 -98.7282,142.02693 -63.537,0 -94.6658,-71.77979 -94.6658,-143.48734 l -40.3023,-7.10633 c 0,77.05189 -18.6786,158.23424 -81.2711,150.59367 -33.7695,-4.12218 -53.699,-38.17121 -53.699,-73.9683 0,-49.89998 42.5889,-88.82835 93.3386,-88.82835 h 370.6958 c 51.6398,0 94.9252,39.80475 93.3387,90.21981 -1.5394,48.91331 -45.7237,85.36615 -93.3387,76.15005 v 40.92433 c 79.8427,15.45392 153.7919,-46.16263 153.7919,-127.73381 0,-71.42155 -75.2638,-113.66405 -153.7919,-113.66405 h -370.6958 c -81.5028,0 -153.792,55.84845 -153.792,133.59142 0,69.96654 62.8068,123.20664 131.6489,111.37964 43.8048,-7.52562 77.7068,-41.42778 90.5587,-84.23619 25.2648,48.46963 71.5424,84.23619 125.6806,84.23619 94.1061,0 151.0273,-98.64814 148.4024,-201.94154 -2.4871,-97.87798 -58.3151,-190.09762 -148.4024,-190.09762 -92.6894,0 -152.4647,93.26284 -152.4647,193.37475 z"
     style="mix-blend-mode:normal;fill:#3182ce;fill-opacity:1;stroke:none;stroke-width:0.741385;filter:url(#filter25368)"
     id="path5646-3" />
  <path
     d="m 511.83974,1654.7069 c 0,-75.3869 28.58876,-152.4103 94.66586,-152.4103 67.76562,0 101.07092,76.9681 98.72822,153.8707 -2.17136,71.2757 -34.86486,142.027 -98.72822,142.027 -63.53702,0 -94.66586,-71.7798 -94.66586,-143.4874 l -40.30227,-7.1063 c 0,77.0519 -18.67862,158.2342 -81.27116,150.5937 -33.76943,-4.1222 -53.69897,-38.1712 -53.69897,-73.9683 0,-49.9 42.58889,-88.8284 93.33864,-88.8284 h 370.69581 c 51.63978,0 94.92515,39.8048 93.33864,90.2198 -1.53934,48.9133 -45.72366,85.3662 -93.33864,76.1501 v 40.9243 c 79.8427,15.4539 153.79187,-46.1626 153.79187,-127.7338 0,-71.4216 -75.26382,-113.6641 -153.79187,-113.6641 H 429.90598 c -81.50276,0 -153.79204,55.8485 -153.79204,133.5915 0,69.9665 62.80685,123.2066 131.6489,111.3796 43.80485,-7.5256 77.70684,-41.4278 90.55875,-84.2362 25.2648,48.4696 71.54237,84.2362 125.68053,84.2362 94.10618,0 151.02733,-98.6481 148.40239,-201.9415 -2.48709,-97.878 -58.315,-190.0976 -148.40239,-190.0976 -92.68933,0 -152.46465,93.2628 -152.46465,193.3747 z"
     style="fill:#e53e3e;fill-opacity:1;stroke:none;stroke-width:0.741385;filter:url(#filter25376)"
     id="path5646-3-5" />
  <path
     d="m 1288.9934,947.85695 c 0,-75.38692 28.5888,-152.41041 94.6659,-152.41041 67.7656,0 101.0707,76.96817 98.728,153.87081 -2.1712,71.27575 -34.8647,142.02695 -98.728,142.02695 -63.537,0 -94.6659,-71.7798 -94.6659,-143.48735 l -40.3024,-7.1064 c 0,77.05195 -18.6784,158.23435 -81.271,150.59375 -33.7696,-4.1222 -53.6991,-38.1712 -53.6991,-73.9683 0,-49.90005 42.589,-88.82835 93.3386,-88.82835 h 370.6959 c 51.6398,0 94.9252,39.8047 93.3387,90.21985 -1.5394,48.9133 -45.7239,85.3661 -93.3387,76.15 v 40.9244 c 79.8425,15.4539 153.7919,-46.1627 153.7919,-127.7339 0,-71.42155 -75.264,-113.66405 -153.7919,-113.66405 h -370.6959 c -81.5026,0 -153.7919,55.8484 -153.7919,133.59145 0,69.9666 62.8067,123.2067 131.6489,111.3796 43.8047,-7.5256 77.7069,-41.4277 90.5586,-84.2361 25.265,48.4696 71.5425,84.2361 125.6807,84.2361 94.1061,0 151.0271,-98.6481 148.4023,-201.94155 -2.4872,-97.87799 -58.3151,-190.09762 -148.4023,-190.09762 -92.6893,0 -152.4648,93.26283 -152.4648,193.37472 z"
     style="fill:#38a169;fill-opacity:1;stroke:none;stroke-width:0.741385;filter:url(#filter25372)"
     id="path5646-7" />
  <path
     d="m 1744.6624,1205.6576 c 0,-75.3869 28.5886,-152.4104 94.6659,-152.4104 67.7655,0 101.0706,76.9682 98.7279,153.8708 -2.1711,71.2757 -34.8646,142.0269 -98.7279,142.0269 -63.537,0 -94.6659,-71.7798 -94.6659,-143.4873 l -40.3024,-7.1064 c 0,77.0519 -18.6785,158.2343 -81.271,150.5937 -33.7696,-4.1222 -53.6992,-38.1712 -53.6992,-73.9683 0,-49.9 42.5891,-88.8283 93.3387,-88.8283 h 370.6959 c 51.6398,0 94.9252,39.8047 93.3387,90.2198 -1.5394,48.9133 -45.7239,85.3661 -93.3387,76.15 v 40.9244 c 79.8426,15.4539 153.7919,-46.1627 153.7919,-127.7339 0,-71.4215 -75.264,-113.664 -153.7919,-113.664 h -370.6959 c -81.5026,0 -153.7919,55.8484 -153.7919,133.5914 0,69.9666 62.8067,123.2067 131.6489,111.3797 43.8047,-7.5257 77.7069,-41.4278 90.5586,-84.2362 25.265,48.4696 71.5425,84.2362 125.6807,84.2362 94.1061,0 151.0271,-98.6482 148.4024,-201.9416 -2.4873,-97.878 -58.3153,-190.0976 -148.4024,-190.0976 -92.6893,0 -152.4648,93.2628 -152.4648,193.3747 z"
     style="opacity:1;mix-blend-mode:normal;fill:#d53f8c;fill-opacity:1;stroke:none;stroke-width:0.741385;filter:url(#filter25380)"
     id="path5646-6" />
</svg>
