<?xml version="1.0" encoding="UTF-8" standalone="no"?>
<svg
   version="1.1"
   width="988.93927"
   height="563.97552"
   viewBox="0 0 988.93932 563.97552"
   id="svg10"
   sodipodi:docname="ignore_directions-diff-e.svg"
   xml:space="preserve"
   inkscape:version="1.2.2 (b0a8486541, 2022-12-01)"
   xmlns:inkscape="http://www.inkscape.org/namespaces/inkscape"
   xmlns:sodipodi="http://sodipodi.sourceforge.net/DTD/sodipodi-0.dtd"
   xmlns="http://www.w3.org/2000/svg"
   xmlns:svg="http://www.w3.org/2000/svg"><defs
     id="defs14" /><sodipodi:namedview
     id="namedview12"
     pagecolor="#ffffff"
     bordercolor="#666666"
     borderopacity="1.0"
     inkscape:showpageshadow="2"
     inkscape:pageopacity="0.0"
     inkscape:pagecheckerboard="0"
     inkscape:deskcolor="#d1d1d1"
     showgrid="false"
     inkscape:zoom="1.3350176"
     inkscape:cx="610.47884"
     inkscape:cy="245.31512"
     inkscape:window-width="1920"
     inkscape:window-height="1012"
     inkscape:window-x="0"
     inkscape:window-y="0"
     inkscape:window-maximized="1"
     inkscape:current-layer="g315" /><path
     d="M 488.90126,251.86442 C 500.84721,115.3246 389.54454,0 250.7911,0 106.31854,0 0,131.3877 0,281.62436 c 0,148.51839 114.05281,273.07363 260.13337,273.07363 93.2678,0 171.63382,-60.97065 229.3505,-135.09365 l -29.03589,-22.60925 c -46.04353,59.1317 -124.72728,74.90224 -200.31461,74.90224 -101.06297,0 -169.53174,-98.43947 -169.53174,-206.24828 0,-101.24281 55.7802,-197.69751 148.20739,-197.69751 96.34747,0 169.43951,86.17468 160.88835,183.91288 z"
     style="fill:#195cb5;stroke:none"
     id="path6" /><g
     id="g315"
     transform="translate(449.42934,-198.7438)"
     style="opacity:0.751163;fill:#000000"><path
       d="M 538.92461,459.69103 C 548.53381,322.23967 438.58841,205.94336 300.81445,207.82661 154.79971,209.82253 45.282761,339.84657 50.023346,489.45097 54.649612,635.44781 165.96452,756.79738 310.15672,762.5246 c 96.32352,3.82591 185.99585,-48.99352 229.3505,-135.09365 L 510.47133,604.8217 C 463.93288,666.59988 385.81094,695.81146 310.15672,679.72394 213.37263,659.14323 145.57867,572.99997 140.62497,473.47566 c -4.85068,-97.45454 55.0621,-188.37399 148.2074,-197.69751 102.57834,-10.26773 184.70369,83.61048 160.88835,183.91288 z"
       style="fill:#000000;stroke:none"
       id="path301" /></g></svg>
