<?xml version="1.0" encoding="UTF-8" standalone="no"?>
<svg
   version="1.1"
   width="1118.9912"
   height="600.16858"
   viewBox="0 0 1118.9913 600.16859"
   id="svg238"
   sodipodi:docname="ക-stroke-outline-diff.svg"
   inkscape:version="1.1.2 (0a00cf5339, 2022-02-04)"
   xmlns:inkscape="http://www.inkscape.org/namespaces/inkscape"
   xmlns:sodipodi="http://sodipodi.sourceforge.net/DTD/sodipodi-0.dtd"
   xmlns="http://www.w3.org/2000/svg"
   xmlns:svg="http://www.w3.org/2000/svg">
  <defs
     id="defs242">
    <inkscape:path-effect
       effect="bspline"
       id="path-effect2940"
       is_visible="true"
       lpeversion="1"
       weight="33.333333"
       steps="2"
       helper_size="0"
       apply_no_weight="true"
       apply_with_weight="true"
       only_selected="false" />
    <inkscape:path-effect
       effect="bspline"
       id="path-effect2940-9"
       is_visible="true"
       lpeversion="1"
       weight="33.333333"
       steps="2"
       helper_size="0"
       apply_no_weight="true"
       apply_with_weight="true"
       only_selected="false" />
    <inkscape:path-effect
       effect="bspline"
       id="path-effect2940-9-3"
       is_visible="true"
       lpeversion="1"
       weight="33.333333"
       steps="2"
       helper_size="0"
       apply_no_weight="true"
       apply_with_weight="true"
       only_selected="false" />
  </defs>
  <sodipodi:namedview
     id="namedview240"
     pagecolor="#ffffff"
     bordercolor="#666666"
     borderopacity="1.0"
     inkscape:pageshadow="2"
     inkscape:pageopacity="0.0"
     inkscape:pagecheckerboard="0"
     showgrid="false"
     showguides="true"
     inkscape:guide-bbox="true"
     inkscape:zoom="0.59514215"
     inkscape:cx="594.81587"
     inkscape:cy="84.853677"
     inkscape:window-width="1920"
     inkscape:window-height="1011"
     inkscape:window-x="0"
     inkscape:window-y="0"
     inkscape:window-maximized="1"
     inkscape:current-layer="svg238" />
  <path
     d="m 326.24085,277.96728 c 0,-108.03993 50.1317,-214.918635 146.514,-214.918635 88.4084,0 110.5183,110.893725 110.5183,213.693435 0,101.19984 -23.4022,209.82361 -110.5183,209.82361 -94.7063,0 -146.514,-103.14902 -146.514,-208.59841 h -56.4307 c 0,98.83927 -11.6051,208.59841 -96.4712,208.59841 -48.1461,0 -81.827197,-45.71041 -82.161997,-96.59947 -0.4698,-71.41025 53.701697,-131.85076 123.724197,-131.85076 h 498.7462 c 67.4408,0 123.7242,52.22646 123.7242,118.72501 0,68.43593 -57.5429,122.96223 -123.7242,113.59506 v 61.56024 c 109.4421,15.49022 208.7733,-66.21925 208.7733,-175.1553 0,-101.789 -99.8836,-170.02533 -208.7733,-170.02533 h -498.7462 c -111.2329,0 -209.4716973,76.99686 -208.7732973,183.15108 0.6042,91.83958 75.3293003,165.8994 167.2110973,165.8994 64.1392,0 111.0983,-54.78122 131.4131,-117.95992 32.7238,66.98625 94.3675,117.95992 168.0028,117.95992 129.2552,0 205.018,-136.77912 205.018,-279.12354 0,-140.77141 -76.7249,-275.2536754 -205.018,-275.2536754 -127.9927,0 -202.9447,135.5014954 -202.9447,276.4788754 z"
     style="fill:#195cb5;stroke:none"
     id="path10" />
  <path
     d="m 298.02555,277.96728 c 0,-124.5007 62.5828,-245.698755 174.7293,-245.698755 107.3839,0 157.7681,122.767545 157.7681,244.473555 0,121.70602 -50.3842,244.47357 -157.7681,244.47357 -111.5165,0 -174.7293,-119.7484 -174.7293,-243.24837 0,116.87113 -24.2164,243.24837 -124.6866,243.24837 -69.9241,0 -124.217497,-59.95053 -124.686497,-131.24943 -0.5832,-88.63288 75.743297,-157.50092 166.248697,-157.50092 0.041,0 498.7056,0 498.7462,0 88.0983,0 166.2488,60.34767 166.2488,144.37517 0,88.65919 -78.4645,156.8 -166.2488,144.37518"
     style="fill:none;stroke:#cccccc;stroke-width:2;stroke-linejoin:round;stroke-miterlimit:10"
     id="path12" />
  <path
     d="M 2.2173007,0.5 H 1118.9912"
     style="fill:none;stroke:#787578;stroke-width:1;stroke-linejoin:round;stroke-miterlimit:10"
     id="path236" />
  <path
     d="m 326.24085,277.96727 c 0,-108.03993 50.1317,-214.91864 146.514,-214.91864 88.4084,0 132.5183,110.89373 132.5183,213.69344 0,101.19984 -45.4022,209.82366 -132.5183,209.82366 -94.7063,0 -146.514,-103.14907 -146.514,-208.59846 h -56.4307 c 0,98.83927 -11.6051,208.59846 -96.4712,208.59846 -48.1461,0 -81.8272,-45.7105 -82.162,-96.59952 -0.4698,-71.41025 53.7017,-131.85076 123.7242,-131.85076 h 498.7462 c 67.4408,0 123.7242,52.22646 123.7242,118.72501 0,68.43597 -57.5429,122.96227 -123.7242,113.59507 v 61.5602 c 109.4421,15.4903 208.7733,-66.2192 208.7733,-175.15527 0,-101.789 -99.8836,-170.02533 -208.7733,-170.02533 h -498.7462 c -111.2329,0 -209.4717001,76.99686 -208.7733,183.15108 0.6042,91.83962 75.3293,165.89942 167.2111,165.89942 64.1392,0 111.0983,-54.7812 131.4131,-117.9599 32.7238,66.9862 94.3675,117.9599 168.0028,117.9599 129.2552,0 227.018,-136.7791 227.018,-279.12356 0,-140.77141 -98.7249,-275.25368 -227.018,-275.25368 -127.9927,0 -202.9447,135.5015 -202.9447,276.47888 z"
     style="opacity:0.82381729;fill:#26a269;stroke:#26a269"
     id="path10-1"
     sodipodi:nodetypes="csssccsssssccssssscssscc" />
  <path
     d="m 298.02555,277.96727 c 0,-124.5007 62.5828,-245.69876 174.7293,-245.69876 107.3839,0 181.7681,122.76755 181.7681,244.47356 0,121.70602 -74.3842,244.47356 -181.7681,244.47356 -111.5165,0 -174.7293,-119.7484 -174.7293,-243.24836 0,116.87113 -24.2164,243.24836 -124.6866,243.24836 -69.9241,0 -124.2175,-59.9505 -124.6865,-131.24942 -0.5832,-88.63288 75.7433,-157.50092 166.2487,-157.50092 h 498.7462 c 88.0983,0 166.2488,60.34767 166.2488,144.37517 0,88.65917 -78.4645,156.79997 -166.2488,144.37517"
     style="opacity:0.929853;fill:none;stroke:#26a269;stroke-width:2;stroke-linejoin:round;stroke-miterlimit:10"
     id="path12-7"
     sodipodi:nodetypes="cssscsssssc" />
  <path
     d="M 0,599.66856 H 1116.7739"
     style="fill:none;stroke:#787578;stroke-width:1;stroke-linejoin:round;stroke-miterlimit:10"
     id="path236-4" />
</svg>
